<svg width="221" height="27" viewBox="0 0 221 27" fill="none" xmlns="http://www.w3.org/2000/svg">
<path d="M0.5 0.773438H16.9921V3.61415H3.36232V11.0154H15.4613V13.8562H3.36232V24.7616H0.5V0.773438Z" fill="white"/>
<path d="M18.5938 12.8568C18.5938 5.74537 23.2442 0.199219 30.3775 0.199219C37.4786 0.199219 42.0648 5.77757 42.0648 12.8568C42.0648 20.0649 37.2213 25.3598 30.3775 25.3598C23.4951 25.3598 18.5938 20.0649 18.5938 12.8568ZM39.0031 12.8246C39.0031 7.27845 35.6262 3.06569 30.3711 3.06569C25.116 3.06569 21.7069 7.27201 21.7069 12.8246C21.7069 18.4996 25.3668 22.5191 30.3711 22.5191C35.3432 22.5191 39.0031 18.5318 39.0031 12.8246Z" fill="white"/>
<path d="M45.5625 15.6984V0.773438H48.457V15.6984C48.457 20.1624 50.7147 22.4878 54.7927 22.4878C58.9672 22.4878 61.2892 20.1946 61.2892 15.7306V0.773438H64.1837V15.7306C64.1837 21.9467 60.6202 25.3607 54.7927 25.3607C49.0037 25.3607 45.5625 22.0111 45.5625 15.6984Z" fill="white"/>
<path d="M68.7578 0.773438H78.6955C83.3138 0.773438 86.3691 3.67212 86.3691 7.65942C86.3691 10.3713 84.9347 12.5679 82.2654 13.6565C85.3207 15.4408 84.2722 19.5247 86.9802 24.7552H83.7319C81.8537 21.1866 82.2654 14.423 77.9365 14.423H71.633V24.7552H68.7707V0.773438H68.7578ZM78.6312 11.5823C81.4678 11.5823 83.436 9.92683 83.436 7.53059C83.436 5.17299 81.5578 3.6077 78.6312 3.6077H71.6266V11.5823H78.6312Z" fill="white"/>
<path d="M89.457 17.8941L92.3258 17.3208C92.8982 20.7348 95.0659 22.4869 98.6615 22.4869C102.135 22.4869 104.553 20.8314 104.553 18.4674C104.553 16.3932 102.675 14.9567 98.089 13.6233C92.5187 12.0258 90.126 9.66825 90.126 6.35087C90.126 2.55681 93.2456 0.199219 98.2434 0.199219C103.113 0.199219 106.046 2.43443 107.03 6.70515L104.071 7.34286C103.434 4.46994 101.524 3.03993 98.1791 3.03993C95.0595 3.03993 93.1169 4.25093 93.1169 6.3251C93.1169 8.23823 94.7378 9.54586 99.2918 10.9501C105.28 12.7666 107.506 15.1242 107.506 18.4738C107.506 22.6543 104.097 25.3598 98.8094 25.3598C93.5222 25.3598 90.2546 22.7445 89.457 17.8941Z" fill="white"/>
<path d="M110.02 12.8568C110.02 5.74537 114.67 0.199219 121.803 0.199219C128.904 0.199219 133.491 5.77757 133.491 12.8568C133.491 16.3674 132.346 19.4271 130.371 21.6237C131.329 22.577 132.249 23.5368 133.143 24.5224L131.104 26.5321C130.178 25.5466 129.194 24.5224 128.203 23.5046C126.389 24.6834 124.222 25.3533 121.803 25.3533C114.927 25.3598 110.02 20.0649 110.02 12.8568ZM126.036 21.4047C125.077 20.5093 124.157 19.6204 123.199 18.7894L125.206 16.7797C126.222 17.6751 127.245 18.5962 128.229 19.5238C129.599 17.8361 130.429 15.5365 130.429 12.8246C130.429 7.27845 127.052 3.06569 121.797 3.06569C116.542 3.06569 113.133 7.27201 113.133 12.8246C113.133 18.4996 116.793 22.5191 121.797 22.5191C123.366 22.5191 124.794 22.139 126.036 21.4047Z" fill="white"/>
<path d="M137.129 15.6984V0.773438H140.023V15.6984C140.023 20.1624 142.281 22.4878 146.359 22.4878C150.534 22.4878 152.856 20.1946 152.856 15.7306V0.773438H155.75V15.7306C155.75 21.9467 152.187 25.3607 146.359 25.3607C140.564 25.3607 137.129 22.0111 137.129 15.6984Z" fill="white"/>
<path d="M166.496 0.773438H169.872L179.173 24.7552H176.118L173.442 17.837H162.9L160.256 24.7552H157.137L166.496 0.773438ZM172.291 15.0285L168.213 4.25186L164.038 15.0285H172.291Z" fill="white"/>
<path d="M181.73 0.773438H191.668C196.286 0.773438 199.342 3.67212 199.342 7.65942C199.342 10.3713 197.907 12.5679 195.238 13.6565C198.293 15.4408 197.245 19.5247 199.953 24.7552H196.705C194.826 21.1866 195.238 14.423 190.909 14.423H184.606V24.7552H181.743V0.773438H181.73ZM191.597 11.5823C194.434 11.5823 196.402 9.92683 196.402 7.53059C196.402 5.17299 194.524 3.6077 191.597 3.6077H184.593V11.5823H191.597Z" fill="white"/>
<path d="M203.527 0.773438H220.212V3.61415H206.396V11.0154H219.164V13.8562H206.396V21.8887H220.502V24.7616H203.527V0.773438Z" fill="white"/>
</svg>
