<?xml version="1.0" encoding="UTF-8" standalone="no"?>
<!DOCTYPE svg PUBLIC "-//W3C//DTD SVG 1.1//EN" "http://www.w3.org/Graphics/SVG/1.1/DTD/svg11.dtd">
<svg width="100%" height="100%" viewBox="0 0 529 161" version="1.1" xmlns="http://www.w3.org/2000/svg" xmlns:xlink="http://www.w3.org/1999/xlink" xml:space="preserve" xmlns:serif="http://www.serif.com/" style="fill-rule:evenodd;clip-rule:evenodd;stroke-linejoin:round;stroke-miterlimit:2;">
    <g transform="matrix(1,0,0,1,-0.10761,0)">
        <g transform="matrix(1,0,0,1,-471,0)">
            <path d="M471.108,30.517C471.108,13.938 483.974,1.732 500.057,1.732C516.141,1.732 529.007,13.938 529.007,30.517C529.007,47.095 516.141,59.301 500.057,59.301C483.974,59.301 471.108,47.095 471.108,30.517ZM519.852,30.517C519.852,18.639 511.687,9.732 500.057,9.732C488.428,9.732 480.263,18.639 480.263,30.517C480.263,42.393 488.428,51.301 500.057,51.301C511.687,51.301 519.852,42.393 519.852,30.517Z" style="fill-rule:nonzero;"/>
        </g>
        <g transform="matrix(1,0,0,1,-471,0)">
            <path d="M535.024,30.352L543.272,30.352L543.272,33.568C544.84,31.094 547.726,29.609 552.015,29.609C559.356,29.609 565.294,35.877 565.294,44.456C565.294,53.033 559.356,59.301 552.015,59.301C547.726,59.301 544.84,57.816 543.272,55.342L543.272,76.044L535.024,76.044L535.024,30.352ZM556.799,44.456C556.799,39.837 554.077,36.867 549.87,36.867C545.665,36.867 543.107,39.837 543.107,44.456C543.107,49.074 545.665,52.043 549.87,52.043C554.077,52.043 556.799,49.074 556.799,44.456Z" style="fill-rule:nonzero;"/>
        </g>
        <g transform="matrix(1,0,0,1,-471,0)">
            <path d="M585.499,52.374C589.128,52.374 591.272,50.971 592.839,49.651L597.788,54.6C595.231,57.322 591.519,59.301 585.664,59.301C575.849,59.301 569.58,53.033 569.58,44.456C569.58,35.877 576.261,29.609 584.838,29.609C594.736,29.609 600.345,37.445 599.685,47.259L578.158,47.259C578.983,50.394 581.374,52.374 585.499,52.374L585.499,52.374ZM591.025,41.486C590.447,38.6 588.385,36.538 584.838,36.538C581.457,36.538 579.065,38.269 578.241,41.486L591.025,41.486Z" style="fill-rule:nonzero;"/>
        </g>
        <g transform="matrix(1,0,0,1,-471,0)">
            <path d="M605.043,30.352L613.291,30.352L613.291,33.981C615.105,30.929 618.157,29.609 622.116,29.609C628.384,29.609 632.755,33.981 632.755,41.486L632.755,58.559L624.508,58.559L624.508,42.064C624.508,38.929 622.858,37.032 619.476,37.032C615.518,37.032 613.291,39.177 613.291,43.383L613.291,58.559L605.043,58.559L605.043,30.352Z" style="fill-rule:nonzero;"/>
        </g>
        <g transform="matrix(1,0,0,1,-471,0)">
            <path d="M652.298,2.474L661.618,2.474L677.618,40.166L693.125,2.474L702.033,2.474L677.784,59.384L677.289,59.384L652.298,2.474Z" style="fill-rule:nonzero;"/>
        </g>
        <g transform="matrix(1,0,0,1,-471,0)">
            <path d="M701.617,17.402C701.617,14.434 704.091,12.207 706.813,12.207C709.617,12.207 712.009,14.434 712.009,17.402C712.009,20.372 709.617,22.599 706.813,22.599C704.091,22.599 701.617,20.372 701.617,17.402ZM702.689,30.352L710.937,30.352L710.937,58.559L702.689,58.559L702.689,30.352Z" style="fill-rule:nonzero;"/>
        </g>
        <g transform="matrix(1,0,0,1,-471,0)">
            <path d="M715.224,53.693L720.42,49.074C722.4,51.466 724.957,52.621 727.761,52.621C730.73,52.621 731.885,51.713 731.885,50.559C731.885,49.239 731.06,48.662 726.441,47.672C720.585,46.435 717.121,43.713 717.121,38.517C717.121,33.238 721.162,29.609 727.513,29.609C731.967,29.609 735.102,31.011 737.906,33.485L733.534,38.517C732.132,37.115 730.07,36.208 727.761,36.208C725.616,36.208 724.544,37.115 724.544,38.187C724.544,39.59 725.616,40.084 730.317,40.991C736.668,42.229 739.72,45.363 739.72,49.982C739.72,55.673 735.679,59.301 727.925,59.301C723.224,59.301 718.605,57.404 715.224,53.693L715.224,53.693Z" style="fill-rule:nonzero;"/>
        </g>
        <g transform="matrix(1,0,0,1,-471,0)">
            <path d="M744.419,47.425L744.419,30.352L752.667,30.352L752.667,46.847C752.667,49.982 754.317,51.878 757.699,51.878C761.657,51.878 763.884,49.734 763.884,45.528L763.884,30.352L772.132,30.352L772.132,58.559L763.884,58.559L763.884,54.93C762.07,57.981 759.018,59.301 755.059,59.301C748.791,59.301 744.419,54.93 744.419,47.424L744.419,47.425Z" style="fill-rule:nonzero;"/>
        </g>
        <g transform="matrix(1,0,0,1,-471,0)">
            <path d="M790.275,36.538C787.305,36.538 785.161,37.692 783.512,39.59L778.481,34.971C781.614,31.424 785.739,29.609 790.769,29.609C798.77,29.609 803.719,33.733 803.719,42.064L803.719,58.559L795.471,58.559L795.471,56.002C793.574,58.229 790.852,59.301 787.553,59.301C781.862,59.301 777.078,56.497 777.078,49.899C777.078,44.373 781.945,41.651 788.13,41.651L795.471,41.651C795.388,37.857 793.244,36.538 790.275,36.538ZM788.542,47.259C786.398,47.259 785.243,48.332 785.243,49.982C785.243,51.548 786.315,52.703 789.038,52.703C792.749,52.703 795.471,50.723 795.471,48.414L795.471,47.259L788.542,47.259L788.542,47.259Z" style="fill-rule:nonzero;"/>
        </g>
        <g transform="matrix(1,0,0,1,-471,0)">
            <rect x="810.232" y="0" width="8.247" height="58.559" style="fill-rule:nonzero;"/>
        </g>
        <g transform="matrix(1,0,0,1,-471,0)">
            <path d="M824.334,17.402C824.334,14.434 826.808,12.207 829.53,12.207C832.334,12.207 834.726,14.434 834.726,17.402C834.726,20.372 832.334,22.599 829.53,22.599C826.808,22.599 824.334,20.372 824.334,17.402ZM825.406,30.352L833.654,30.352L833.654,58.559L825.406,58.559L825.406,30.352Z" style="fill-rule:nonzero;"/>
        </g>
        <g transform="matrix(1,0,0,1,-471,0)">
            <path d="M838.353,58.229L851.467,37.197L840.25,37.197L840.25,30.352L864.087,30.352L864.087,30.682L851.055,51.713L863.344,51.713L863.344,58.559L838.353,58.559L838.353,58.229Z" style="fill-rule:nonzero;"/>
        </g>
        <g transform="matrix(1,0,0,1,-471,0)">
            <path d="M880.086,36.538C877.117,36.538 874.973,37.692 873.323,39.59L868.292,34.971C871.426,31.424 875.55,29.609 880.581,29.609C888.581,29.609 893.53,33.733 893.53,42.064L893.53,58.559L885.282,58.559L885.282,56.002C883.385,58.229 880.664,59.301 877.364,59.301C871.673,59.301 866.89,56.497 866.89,49.899C866.89,44.373 871.756,41.651 877.941,41.651L885.282,41.651C885.2,37.857 883.055,36.538 880.086,36.538ZM878.354,47.259C876.21,47.259 875.055,48.332 875.055,49.982C875.055,51.548 876.127,52.703 878.849,52.703C882.56,52.703 885.282,50.723 885.282,48.414L885.282,47.259L878.354,47.259L878.354,47.259Z" style="fill-rule:nonzero;"/>
        </g>
        <g transform="matrix(1,0,0,1,-471,0)">
            <path d="M898.146,37.198L898.146,30.352L901.445,30.352L901.445,11.959L909.693,11.959L909.693,30.352L916.291,30.352L916.291,37.198L909.693,37.198L909.693,48.662C909.693,51.548 910.6,52.209 912.085,52.209C913.075,52.209 913.899,51.713 914.559,51.219L917.776,56.991C916.373,58.146 914.147,59.301 910.682,59.301C905.322,59.301 901.445,56.662 901.445,48.827L901.445,37.198L898.146,37.198Z" style="fill-rule:nonzero;"/>
        </g>
        <g transform="matrix(1,0,0,1,-471,0)">
            <path d="M921.073,17.402C921.073,14.434 923.547,12.207 926.269,12.207C929.073,12.207 931.465,14.434 931.465,17.402C931.465,20.372 929.073,22.599 926.269,22.599C923.547,22.599 921.073,20.372 921.073,17.402ZM922.145,30.352L930.392,30.352L930.392,58.559L922.145,58.559L922.145,30.352Z" style="fill-rule:nonzero;"/>
        </g>
        <g transform="matrix(1,0,0,1,-471,0)">
            <path d="M936,44.456C936,35.877 942.762,29.609 951.423,29.609C960.083,29.609 966.846,35.877 966.846,44.456C966.846,53.033 960.083,59.301 951.423,59.301C942.762,59.301 936,53.033 936,44.456ZM958.351,44.456C958.351,39.919 955.712,36.62 951.423,36.62C947.134,36.62 944.495,39.919 944.495,44.456C944.495,48.992 947.134,52.291 951.423,52.291C955.712,52.291 958.351,48.992 958.351,44.456Z" style="fill-rule:nonzero;"/>
        </g>
        <g transform="matrix(1,0,0,1,-471,0)">
            <path d="M972.287,30.352L980.535,30.352L980.535,33.981C982.35,30.929 985.401,29.609 989.361,29.609C995.628,29.609 1000,33.981 1000,41.486L1000,58.559L991.752,58.559L991.752,42.064C991.752,38.929 990.102,37.032 986.721,37.032C982.762,37.032 980.535,39.177 980.535,43.383L980.535,58.559L972.287,58.559L972.287,30.352Z" style="fill-rule:nonzero;"/>
        </g>
        <g transform="matrix(1,0,0,1,-471,0)">
            <path d="M473.17,115.233C473.252,98.489 485.542,86.53 501.377,86.53C510.12,86.53 517.873,90.324 523.151,96.757L521.172,98.242C516.471,92.386 509.543,88.922 501.377,88.922C486.861,88.922 475.892,100.139 475.892,115.233C475.892,130.326 487.026,141.543 501.872,141.543C510.697,141.543 518.121,137.584 522.822,131.316L524.801,132.8C519.522,139.729 511.275,143.935 501.872,143.935C485.706,143.935 473.087,131.975 473.17,115.233L473.17,115.233Z" style="fill-rule:nonzero;"/>
        </g>
        <g transform="matrix(1,0,0,1,-471,0)">
            <path d="M530.241,130.161C530.241,122.408 536.262,116.387 543.768,116.387C551.273,116.387 557.294,122.408 557.294,130.161C557.294,137.914 551.273,143.935 543.768,143.935C536.262,143.935 530.241,137.914 530.241,130.161ZM554.737,130.161C554.737,123.563 550.118,118.531 543.768,118.531C537.417,118.531 532.798,123.563 532.798,130.161C532.798,136.759 537.417,141.791 543.768,141.791C550.118,141.791 554.737,136.759 554.737,130.161Z" style="fill-rule:nonzero;"/>
        </g>
        <g transform="matrix(1,0,0,1,-471,0)">
            <rect x="564.797" y="84.716" width="2.474" height="58.559" style="fill-rule:nonzero;"/>
        </g>
        <g transform="matrix(1,0,0,1,-471,0)">
            <rect x="577.25" y="84.716" width="2.474" height="58.559" style="fill-rule:nonzero;"/>
        </g>
        <g transform="matrix(1,0,0,1,-471,0)">
            <path d="M607.023,126.614C607.023,120.841 604.218,118.531 599.682,118.531C595.888,118.531 593.331,119.934 591.352,123.067L589.537,121.83C592.012,118.119 595.228,116.387 599.682,116.387C605.621,116.387 609.497,119.603 609.497,126.449L609.497,143.275L607.023,143.275L607.023,139.811C605.291,142.203 602.157,143.935 598.033,143.935C592.342,143.935 587.805,141.13 587.805,135.604C587.805,130.079 592.671,127.604 598.115,127.604L607.023,127.604L607.023,126.614L607.023,126.614ZM598.445,129.748C594.156,129.748 590.28,131.233 590.28,135.604C590.28,139.893 593.661,141.708 598.362,141.708C602.652,141.708 607.023,139.481 607.023,134.532L607.023,129.748L598.445,129.748L598.445,129.748Z" style="fill-rule:nonzero;"/>
        </g>
        <g transform="matrix(1,0,0,1,-471,0)">
            <path d="M621.041,137.584L621.041,143.275L618.567,143.275L618.567,84.716L621.041,84.716L621.041,122.738C623.268,118.614 627.062,116.387 631.764,116.387C639.516,116.387 645.207,122.408 645.207,130.161C645.207,137.914 639.516,143.935 631.764,143.935C627.062,143.935 623.268,141.708 621.041,137.584ZM642.651,130.161C642.651,123.481 638.197,118.614 631.764,118.614C625.33,118.614 620.876,123.481 620.876,130.161C620.876,136.841 625.33,141.708 631.764,141.708C638.197,141.708 642.651,136.841 642.651,130.161Z" style="fill-rule:nonzero;"/>
        </g>
        <g transform="matrix(1,0,0,1,-471,0)">
            <path d="M650.236,130.161C650.236,122.408 656.257,116.387 663.763,116.387C671.268,116.387 677.289,122.408 677.289,130.161C677.289,137.914 671.268,143.935 663.763,143.935C656.257,143.935 650.236,137.914 650.236,130.161ZM674.732,130.161C674.732,123.563 670.113,118.531 663.763,118.531C657.412,118.531 652.793,123.563 652.793,130.161C652.793,136.759 657.412,141.791 663.763,141.791C670.113,141.791 674.732,136.759 674.732,130.161Z" style="fill-rule:nonzero;"/>
        </g>
        <g transform="matrix(1,0,0,1,-471,0)">
            <path d="M684.545,117.047L687.019,117.047L687.019,121.666C688.669,118.449 691.473,116.387 694.855,116.387C696.669,116.387 697.577,116.552 698.896,117.294L697.989,119.356C697.164,118.862 696.257,118.697 694.69,118.697C690.566,118.697 687.019,122.738 687.019,128.099L687.019,143.275L684.545,143.275L684.545,117.047Z" style="fill-rule:nonzero;"/>
        </g>
        <g transform="matrix(1,0,0,1,-471,0)">
            <path d="M720.917,126.614C720.917,120.841 718.112,118.531 713.576,118.531C709.782,118.531 707.225,119.934 705.246,123.067L703.431,121.83C705.906,118.119 709.122,116.387 713.576,116.387C719.515,116.387 723.391,119.603 723.391,126.449L723.391,143.275L720.917,143.275L720.917,139.811C719.185,142.203 716.051,143.935 711.927,143.935C706.236,143.935 701.699,141.13 701.699,135.604C701.699,130.079 706.565,127.604 712.009,127.604L720.917,127.604L720.917,126.614L720.917,126.614ZM712.339,129.748C708.05,129.748 704.174,131.233 704.174,135.604C704.174,139.893 707.555,141.708 712.256,141.708C716.546,141.708 720.917,139.481 720.917,134.532L720.917,129.748L712.339,129.748L712.339,129.748Z" style="fill-rule:nonzero;"/>
        </g>
        <g transform="matrix(1,0,0,1,-471,0)">
            <path d="M730.069,119.191L730.069,117.047L733.781,117.047L733.781,101.293L736.255,101.293L736.255,117.047L743.1,117.047L743.1,119.191L736.255,119.191L736.255,137.584C736.255,140.058 737.162,141.708 739.554,141.708C740.873,141.708 742.111,141.048 742.936,140.388L744.173,142.203C743.018,143.275 741.286,143.935 739.554,143.935C735.925,143.935 733.781,141.543 733.781,137.914L733.781,119.191L730.069,119.191L730.069,119.191Z" style="fill-rule:nonzero;"/>
        </g>
        <g transform="matrix(1,0,0,1,-471,0)">
            <path d="M750.356,103.273C750.356,102.118 751.346,101.211 752.418,101.211C753.491,101.211 754.48,102.118 754.48,103.273C754.48,104.428 753.491,105.335 752.418,105.335C751.346,105.335 750.356,104.428 750.356,103.273ZM751.181,117.047L753.655,117.047L753.655,143.275L751.181,143.275L751.181,117.047Z" style="fill-rule:nonzero;"/>
        </g>
        <g transform="matrix(1,0,0,1,-471,0)">
            <path d="M761.16,130.161C761.16,122.408 767.18,116.387 774.686,116.387C782.191,116.387 788.212,122.408 788.212,130.161C788.212,137.914 782.191,143.935 774.686,143.935C767.18,143.935 761.16,137.914 761.16,130.161ZM785.655,130.161C785.655,123.563 781.036,118.531 774.686,118.531C768.335,118.531 763.716,123.563 763.716,130.161C763.716,136.759 768.335,141.791 774.686,141.791C781.036,141.791 785.655,136.759 785.655,130.161Z" style="fill-rule:nonzero;"/>
        </g>
        <g transform="matrix(1,0,0,1,-471,0)">
            <path d="M795.468,117.047L797.942,117.047L797.942,121.995C799.674,118.531 803.386,116.387 807.675,116.387C813.366,116.387 817.902,119.686 817.902,126.945L817.902,143.275L815.428,143.275L815.428,127.357C815.428,121.254 812.541,118.614 807.592,118.614C801.984,118.614 797.942,122.326 797.942,128.346L797.942,143.275L795.468,143.275L795.468,117.047Z" style="fill-rule:nonzero;"/>
        </g>
        <g transform="matrix(1,0,0,1,-471,0)">
            <path d="M841.487,131.728C844.704,137.831 850.477,141.543 857.735,141.543C866.725,141.543 871.839,136.841 871.839,129.913C871.839,123.067 868.21,119.439 859.962,115.48L854.848,113.006C846.93,109.129 842.642,106.078 842.642,98.901C842.642,91.396 848.662,86.53 856.168,86.53C862.931,86.53 867.467,89.005 870.849,94.448L868.87,95.602C865.983,90.983 862.024,88.84 856.168,88.84C849.735,88.84 845.198,93.128 845.198,98.901C845.198,105.005 848.58,107.232 856.003,110.861L861.034,113.336C870.437,117.954 874.396,122.326 874.396,129.913C874.396,138.244 868.21,143.935 857.735,143.935C848.91,143.935 842.724,139.481 839.26,132.965L841.487,131.728Z" style="fill-rule:nonzero;"/>
        </g>
        <g transform="matrix(1,0,0,1,-471,0)">
            <path d="M882.971,117.047L885.445,117.047L885.445,122.738C887.672,118.614 891.466,116.387 896.168,116.387C903.92,116.387 909.611,122.408 909.611,130.161C909.611,137.914 903.92,143.935 896.168,143.935C891.466,143.935 887.672,141.708 885.445,137.584L885.445,160.76L882.971,160.76L882.971,117.047L882.971,117.047ZM907.055,130.161C907.055,123.481 902.601,118.614 896.168,118.614C889.734,118.614 885.28,123.481 885.28,130.161C885.28,136.841 889.734,141.708 896.168,141.708C902.601,141.708 907.055,136.841 907.055,130.161Z" style="fill-rule:nonzero;"/>
        </g>
        <g transform="matrix(1,0,0,1,-471,0)">
            <path d="M934.435,126.614C934.435,120.841 931.631,118.531 927.095,118.531C923.301,118.531 920.744,119.934 918.764,123.067L916.95,121.83C919.424,118.119 922.641,116.387 927.095,116.387C933.033,116.387 936.91,119.603 936.91,126.449L936.91,143.275L934.435,143.275L934.435,139.811C932.704,142.203 929.569,143.935 925.446,143.935C919.755,143.935 915.218,141.13 915.218,135.604C915.218,130.079 920.084,127.604 925.528,127.604L934.435,127.604L934.435,126.614L934.435,126.614ZM925.858,129.748C921.568,129.748 917.693,131.233 917.693,135.604C917.693,139.893 921.074,141.708 925.775,141.708C930.064,141.708 934.435,139.481 934.435,134.532L934.435,129.748L925.858,129.748Z" style="fill-rule:nonzero;"/>
        </g>
        <g transform="matrix(1,0,0,1,-471,0)">
            <path d="M943.752,130.161C943.752,122.408 949.525,116.387 957.031,116.387C961.072,116.387 964.289,117.625 966.846,120.346L965.114,121.83C963.135,119.603 960.495,118.531 957.031,118.531C950.68,118.531 946.309,123.563 946.309,130.161C946.309,136.759 950.68,141.791 956.949,141.791C960.825,141.791 963.96,140.306 965.939,137.996L967.671,139.481C965.197,142.45 961.402,143.935 956.949,143.935C949.525,143.935 943.752,137.914 943.752,130.161Z" style="fill-rule:nonzero;"/>
        </g>
        <g transform="matrix(1,0,0,1,-471,0)">
            <path d="M985.731,141.791C990.433,141.791 993.072,140.141 995.134,137.584L996.783,139.068C994.392,142.12 990.763,143.935 985.731,143.935C977.648,143.935 971.957,137.914 971.957,130.161C971.957,122.408 977.897,116.387 985.155,116.387C992.908,116.387 997.938,122.243 998.103,130.656L974.515,130.656C974.762,137.584 979.546,141.791 985.731,141.791L985.731,141.791ZM995.546,128.511C994.887,122.903 991.671,118.531 985.155,118.531C979.381,118.531 975.256,122.738 974.598,128.511L995.546,128.511Z" style="fill-rule:nonzero;"/>
        </g>
    </g>
</svg>
