<?xml version="1.0" encoding="UTF-8" standalone="no"?>
<!DOCTYPE svg PUBLIC "-//W3C//DTD SVG 1.1//EN" "http://www.w3.org/Graphics/SVG/1.1/DTD/svg11.dtd">
<svg width="100%" height="100%" viewBox="0 0 1220 275" version="1.1" xmlns="http://www.w3.org/2000/svg" xmlns:xlink="http://www.w3.org/1999/xlink" xml:space="preserve" xmlns:serif="http://www.serif.com/" style="fill-rule:evenodd;clip-rule:evenodd;stroke-linejoin:round;stroke-miterlimit:2;">
    <g transform="matrix(2,0,0,2,0,0)">
        <path d="M125.835,30.338L125.835,107.083C125.835,120.415 115.011,131.239 101.679,131.239L30.675,131.239C17.342,131.239 6.518,120.415 6.518,107.083L6.518,30.338C6.518,17.005 17.342,6.181 30.675,6.181L101.679,6.181C115.011,6.181 125.835,17.005 125.835,30.338Z" style="fill:rgb(41,87,214);"/>
    </g>
    <g transform="matrix(2,0,0,2,1,0)">
        <g transform="matrix(0.520022,0,0,0.451977,3.652948,3.09322)">
            <path d="M369.465,211.375C360.483,211.375 352.67,209.762 346.027,206.535C339.384,203.308 334.2,198.614 330.476,192.455C326.752,186.295 324.731,178.813 324.413,170.007L344.913,170.007C345.253,174.683 346.524,178.57 348.724,181.667C350.924,184.764 353.815,187.077 357.397,188.607C360.978,190.137 364.945,190.902 369.297,190.902C373.871,190.902 377.908,190.099 381.407,188.492C384.907,186.886 387.649,184.628 389.633,181.719C391.616,178.81 392.608,175.446 392.608,171.628C392.608,168.141 391.734,165.263 389.985,162.992C388.236,160.722 385.79,158.806 382.645,157.245C379.501,155.683 375.822,154.299 371.61,153.092L358.423,149.131C348.754,146.277 341.195,141.94 335.747,136.121C330.299,130.302 327.575,122.679 327.575,113.25C327.575,105.375 329.425,98.483 333.126,92.576C336.827,86.669 341.874,82.08 348.265,78.81C354.657,75.54 361.902,73.905 370.001,73.905C378.274,73.905 385.519,75.551 391.737,78.842C397.954,82.134 402.82,86.67 406.335,92.45C409.85,98.23 411.684,104.853 411.836,112.319L391.673,112.319C391.148,106.577 388.918,102.132 384.985,98.984C381.052,95.836 375.957,94.262 369.702,94.262C365.35,94.262 361.595,95.021 358.436,96.538C355.277,98.055 352.854,100.136 351.169,102.781C349.484,105.426 348.641,108.442 348.641,111.83C348.641,115.568 349.639,118.63 351.636,121.018C353.632,123.405 356.152,125.316 359.195,126.749C362.239,128.183 365.313,129.348 368.418,130.245L379.273,133.437C383.568,134.608 387.749,136.192 391.815,138.189C395.881,140.186 399.539,142.692 402.791,145.708C406.042,148.724 408.622,152.375 410.531,156.66C412.44,160.944 413.394,165.991 413.394,171.8C413.394,179.631 411.661,186.524 408.194,192.479C404.726,198.434 399.718,203.072 393.169,206.393C386.621,209.715 378.719,211.375 369.465,211.375Z" style="fill-rule:nonzero;"/>
            <path d="M475.673,164.742L494.359,164.742L505.837,181.836L513.318,192.201L532.701,220.887L512.782,220.887L499.709,201.726L494.303,192.961L475.673,164.742ZM482.188,211.095C472.04,211.095 462.943,208.379 454.895,202.946C446.847,197.513 440.495,189.682 435.84,179.451C431.185,169.221 428.857,156.934 428.857,142.59C428.857,128.165 431.185,115.831 435.84,105.59C440.495,95.349 446.847,87.508 454.895,82.067C462.943,76.626 472.04,73.905 482.188,73.905C492.337,73.905 501.422,76.626 509.444,82.067C517.466,87.508 523.8,95.349 528.449,105.59C533.097,115.831 535.421,128.165 535.421,142.59C535.421,156.955 533.097,169.253 528.449,179.483C523.8,189.714 517.466,197.54 509.444,202.962C501.422,208.384 492.337,211.095 482.188,211.095ZM482.188,189.632C488.5,189.632 494.084,187.83 498.94,184.226C503.795,180.621 507.606,175.314 510.373,168.303C513.139,161.292 514.522,152.721 514.522,142.59C514.522,132.36 513.139,123.735 510.373,116.713C507.606,109.692 503.795,104.379 498.94,100.774C494.084,97.17 488.5,95.368 482.188,95.368C475.862,95.368 470.263,97.179 465.391,100.803C460.518,104.426 456.694,109.749 453.919,116.771C451.143,123.792 449.755,132.398 449.755,142.59C449.755,152.721 451.143,161.283 453.919,168.274C456.694,175.266 460.518,180.574 465.391,184.197C470.263,187.821 475.862,189.632 482.188,189.632Z" style="fill-rule:nonzero;"/>
            <path d="M555.815,209.302L555.815,75.698L576.625,75.698L576.625,189.138L627.931,189.138L627.931,209.302L555.815,209.302Z" style="fill-rule:nonzero;"/>
            <path d="M646.062,209.302L646.062,75.698L689.511,75.698C698.402,75.698 705.883,77.487 711.952,81.066C718.022,84.644 722.612,89.644 725.724,96.065C728.837,102.487 730.393,109.942 730.393,118.43C730.393,126.961 728.822,134.362 725.682,140.631C722.541,146.9 717.912,151.737 711.794,155.142C705.676,158.547 698.134,160.25 689.168,160.25L658.194,160.25L658.194,140.417L686.418,140.417C691.689,140.417 695.991,139.563 699.322,137.856C702.653,136.148 705.12,133.66 706.723,130.391C708.325,127.123 709.126,123.136 709.126,118.43C709.126,113.648 708.325,109.573 706.723,106.207C705.12,102.84 702.645,100.254 699.297,98.448C695.949,96.643 691.623,95.74 686.32,95.74L666.873,95.74L666.873,209.302L646.062,209.302ZM711.371,209.302L683.202,148.715L705.94,148.715L734.687,209.302L711.371,209.302Z" style="fill-rule:nonzero;"/>
            <path d="M785.042,211.325C776.584,211.325 769.236,209.167 762.997,204.853C756.758,200.538 751.934,194.5 748.524,186.74C745.115,178.98 743.41,169.959 743.41,159.677C743.41,149.28 745.115,140.192 748.524,132.412C751.934,124.633 756.758,118.586 762.997,114.271C769.236,109.956 776.584,107.799 785.042,107.799C793.534,107.799 800.898,109.956 807.135,114.271C813.372,118.586 818.195,124.633 821.604,132.412C825.014,140.192 826.719,149.28 826.719,159.677C826.719,169.959 825.014,178.98 821.604,186.74C818.195,194.5 813.372,200.538 807.135,204.853C800.898,209.167 793.534,211.325 785.042,211.325ZM785.042,192.401C789.773,192.401 793.702,190.936 796.831,188.007C799.96,185.078 802.293,181.134 803.831,176.173C805.369,171.213 806.138,165.693 806.138,159.612C806.138,153.472 805.369,147.919 803.831,142.952C802.293,137.985 799.96,134.038 796.831,131.112C793.702,128.185 789.773,126.721 785.042,126.721C780.327,126.721 776.416,128.185 773.312,131.112C770.207,134.038 767.885,137.976 766.347,142.923C764.809,147.871 764.04,153.434 764.04,159.612C764.04,165.693 764.809,171.213 766.347,176.173C767.885,181.134 770.207,185.078 773.312,188.007C776.416,190.936 780.327,192.401 785.042,192.401Z" style="fill-rule:nonzero;"/>
            <path d="M882.204,211.325C873.746,211.325 866.397,209.167 860.159,204.853C853.92,200.538 849.096,194.5 845.686,186.74C842.276,178.98 840.572,169.959 840.572,159.677C840.572,149.28 842.276,140.192 845.686,132.412C849.096,124.633 853.92,118.586 860.159,114.271C866.397,109.956 873.746,107.799 882.204,107.799C890.696,107.799 898.06,109.956 904.296,114.271C910.533,118.586 915.356,124.633 918.766,132.412C922.176,140.192 923.88,149.28 923.88,159.677C923.88,169.959 922.176,178.98 918.766,186.74C915.356,194.5 910.533,200.538 904.296,204.853C898.06,209.167 890.696,211.325 882.204,211.325ZM882.204,192.401C886.934,192.401 890.864,190.936 893.993,188.007C897.122,185.078 899.455,181.134 900.993,176.173C902.531,171.213 903.3,165.693 903.3,159.612C903.3,153.472 902.531,147.919 900.993,142.952C899.455,137.985 897.122,134.038 893.993,131.112C890.864,128.185 886.934,126.721 882.204,126.721C877.488,126.721 873.578,128.185 870.473,131.112C867.368,134.038 865.047,137.976 863.509,142.923C861.971,147.871 861.202,153.434 861.202,159.612C861.202,165.693 861.971,171.213 863.509,176.173C865.047,181.134 867.368,185.078 870.473,188.007C873.578,190.936 877.488,192.401 882.204,192.401Z" style="fill-rule:nonzero;"/>
            <path d="M941.55,209.302L941.55,109.054L960.574,109.054L961.353,133.149L959.87,133.149C961.14,127.215 963.084,122.361 965.702,118.589C968.321,114.817 971.386,112.018 974.897,110.193C978.408,108.367 982.081,107.454 985.916,107.454C992.198,107.454 997.277,109.728 1001.153,114.276C1005.028,118.824 1007.762,125.497 1009.354,134.297L1006.923,134.297C1008.131,128.328 1010.177,123.354 1013.061,119.374C1015.946,115.394 1019.377,112.413 1023.356,110.429C1027.335,108.446 1031.581,107.454 1036.092,107.454C1041.319,107.454 1046.02,108.764 1050.195,111.382C1054.371,114.001 1057.673,117.845 1060.104,122.916C1062.535,127.986 1063.75,134.245 1063.75,141.693L1063.75,209.302L1043.493,209.302L1043.493,145.273C1043.493,139.073 1042.016,134.531 1039.063,131.648C1036.11,128.765 1032.557,127.324 1028.404,127.324C1025.144,127.324 1022.323,128.131 1019.94,129.746C1017.557,131.36 1015.726,133.591 1014.446,136.437C1013.165,139.283 1012.525,142.592 1012.525,146.363L1012.525,209.302L992.774,209.302L992.774,144.239C992.774,139.11 991.397,135.009 988.644,131.935C985.89,128.861 982.354,127.324 978.035,127.324C975.088,127.324 972.378,128.112 969.905,129.688C967.431,131.264 965.463,133.571 964,136.609C962.537,139.647 961.805,143.396 961.805,147.855L961.805,209.302L941.55,209.302Z" style="fill-rule:nonzero;"/>
            <path d="M1118.187,211.325C1111.521,211.325 1105.61,210.221 1100.455,208.014C1095.3,205.807 1091.08,202.586 1087.795,198.35C1084.511,194.114 1082.358,188.976 1081.338,182.936L1100.304,178.84C1101.476,183.78 1103.589,187.455 1106.641,189.864C1109.694,192.273 1113.678,193.477 1118.593,193.477C1123.587,193.477 1127.548,192.327 1130.476,190.027C1133.405,187.727 1134.869,184.891 1134.869,181.519C1134.869,178.611 1133.905,176.217 1131.979,174.335C1130.053,172.454 1127.092,171.02 1123.098,170.035L1108.265,166.347C1100.031,164.303 1093.889,160.95 1089.839,156.286C1085.789,151.621 1083.763,145.612 1083.763,138.256C1083.763,132.066 1085.246,126.694 1088.21,122.139C1091.174,117.583 1095.291,114.055 1100.561,111.552C1105.83,109.05 1111.939,107.799 1118.889,107.799C1125.481,107.799 1131.154,108.873 1135.907,111.021C1140.659,113.17 1144.507,116.176 1147.448,120.04C1150.39,123.904 1152.435,128.445 1153.585,133.662L1135.524,137.718C1134.515,134.24 1132.71,131.289 1130.109,128.865C1127.507,126.441 1123.858,125.229 1119.164,125.229C1114.866,125.229 1111.275,126.308 1108.39,128.466C1105.505,130.625 1104.063,133.419 1104.063,136.851C1104.063,139.761 1105.012,142.171 1106.91,144.078C1108.809,145.986 1111.977,147.498 1116.414,148.616L1131.24,152.202C1139.493,154.225 1145.623,157.477 1149.631,161.958C1153.639,166.438 1155.643,172.213 1155.643,179.282C1155.643,185.613 1154.052,191.184 1150.869,195.994C1147.686,200.804 1143.281,204.561 1137.653,207.267C1132.025,209.972 1125.536,211.325 1118.187,211.325Z" style="fill-rule:nonzero;"/>
        </g>
    </g>
    <g transform="matrix(2,0,0,2,0,0)">
        <g>
            <g>
                <path d="M72.006,45.116L72.006,47.966C72.006,48.349 71.696,48.659 71.314,48.659L67.616,48.659C67.234,48.659 66.924,48.349 66.924,47.966L66.924,45.116C66.924,44.734 67.234,44.423 67.616,44.423L71.314,44.423C71.696,44.423 72.006,44.734 72.006,45.116Z" style="fill:url(#_Linear1);"/>
                <path d="M65.43,45.116L65.43,47.966C65.43,48.349 65.12,48.659 64.738,48.659L61.04,48.659C60.658,48.659 60.348,48.349 60.348,47.966L60.348,45.116C60.348,44.734 60.658,44.423 61.04,44.423L64.738,44.423C65.12,44.423 65.43,44.734 65.43,45.116Z" style="fill:url(#_Linear2);"/>
            </g>
            <g>
                <path d="M72.006,51.704L72.006,54.555C72.006,54.937 71.696,55.247 71.314,55.247L67.616,55.247C67.234,55.247 66.924,54.937 66.924,54.555L66.924,51.704C66.924,51.322 67.234,51.012 67.616,51.012L71.314,51.012C71.696,51.012 72.006,51.322 72.006,51.704Z" style="fill:url(#_Linear3);"/>
                <path d="M65.43,51.704L65.43,54.555C65.43,54.937 65.12,55.247 64.738,55.247L61.04,55.247C60.658,55.247 60.348,54.937 60.348,54.555L60.348,51.704C60.348,51.322 60.658,51.012 61.04,51.012L64.738,51.012C65.12,51.012 65.43,51.322 65.43,51.704Z" style="fill:url(#_Linear4);"/>
            </g>
        </g>
        <path d="M109.987,70.09C108.899,70.09 107.812,69.675 106.982,68.846L66.177,28.04L25.372,68.846C23.711,70.504 21.021,70.504 19.361,68.846C17.701,67.186 17.701,64.494 19.361,62.835L62.154,20.042C63.228,18.968 64.657,18.376 66.177,18.376C67.696,18.376 69.125,18.968 70.2,20.042L112.993,62.835C114.652,64.494 114.652,67.186 112.993,68.846C112.163,69.675 111.075,70.09 109.987,70.09Z" style="fill:url(#_Linear5);fill-rule:nonzero;"/>
        <ellipse cx="66.186" cy="66.993" rx="22.915" ry="6.136" style="fill:url(#_Linear6);"/>
        <path d="M66.186,75.953C55.57,75.953 46.64,74.019 44.038,71.396C43.753,71.108 43.272,71.308 43.272,71.713L43.272,83.241C43.272,86.63 53.531,89.377 66.186,89.377C78.842,89.377 89.101,86.63 89.101,83.241L89.101,71.713C89.101,71.308 88.62,71.108 88.335,71.396C85.733,74.019 76.803,75.953 66.186,75.953L66.186,75.953Z" style="fill:url(#_Linear7);fill-rule:nonzero;"/>
        <path d="M66.186,92.137C55.57,92.137 46.64,90.204 44.038,87.58C43.753,87.293 43.272,87.493 43.272,87.897L43.272,99.425C43.272,102.814 53.531,105.561 66.186,105.561C78.842,105.561 89.101,102.814 89.101,99.425L89.101,87.897C89.101,87.493 88.62,87.293 88.335,87.58C85.733,90.204 76.803,92.137 66.186,92.137L66.186,92.137Z" style="fill:url(#_Linear8);fill-rule:nonzero;"/>
        <path d="M100.138,67.091L100.138,108.429C100.138,111.83 97.372,114.597 93.971,114.597L38.382,114.597C34.981,114.597 32.215,111.83 32.215,108.429L32.215,67.185L27.715,71.685L27.715,108.429C27.715,114.312 32.501,119.097 38.382,119.097L93.971,119.097C99.853,119.097 104.638,114.312 104.638,108.429L104.638,71.591L100.138,67.091Z" style="fill:url(#_Linear9);fill-rule:nonzero;"/>
    </g>
    <defs>
        <linearGradient id="_Linear1" x1="0" y1="0" x2="1" y2="0" gradientUnits="userSpaceOnUse" gradientTransform="matrix(58.729293,-74.541026,74.541026,58.729293,20.879744,108.206672)"><stop offset="0" style="stop-color:rgb(238,247,247);stop-opacity:1"/><stop offset="1" style="stop-color:white;stop-opacity:1"/></linearGradient>
        <linearGradient id="_Linear2" x1="0" y1="0" x2="1" y2="0" gradientUnits="userSpaceOnUse" gradientTransform="matrix(298.482396,-315.702535,315.702535,298.482396,145.8443,489.170419)"><stop offset="0" style="stop-color:rgb(238,247,247);stop-opacity:1"/><stop offset="1" style="stop-color:white;stop-opacity:1"/></linearGradient>
        <linearGradient id="_Linear3" x1="0" y1="0" x2="1" y2="0" gradientUnits="userSpaceOnUse" gradientTransform="matrix(298.482396,-315.702535,315.702535,298.482396,189.318612,519.984752)"><stop offset="0" style="stop-color:rgb(238,247,247);stop-opacity:1"/><stop offset="1" style="stop-color:white;stop-opacity:1"/></linearGradient>
        <linearGradient id="_Linear4" x1="0" y1="0" x2="1" y2="0" gradientUnits="userSpaceOnUse" gradientTransform="matrix(298.482396,-315.702535,315.702535,298.482396,162.121315,506.445569)"><stop offset="0" style="stop-color:rgb(238,247,247);stop-opacity:1"/><stop offset="1" style="stop-color:white;stop-opacity:1"/></linearGradient>
        <linearGradient id="_Linear5" x1="0" y1="0" x2="1" y2="0" gradientUnits="userSpaceOnUse" gradientTransform="matrix(5645.138261,-3854.841133,3854.841133,5645.138261,2731.880588,5913.807576)"><stop offset="0" style="stop-color:rgb(238,247,247);stop-opacity:1"/><stop offset="1" style="stop-color:white;stop-opacity:1"/></linearGradient>
        <linearGradient id="_Linear6" x1="0" y1="0" x2="1" y2="0" gradientUnits="userSpaceOnUse" gradientTransform="matrix(2691.52355,-914.838527,914.838527,2691.52355,1363.104986,1465.446675)"><stop offset="0" style="stop-color:rgb(238,247,247);stop-opacity:1"/><stop offset="1" style="stop-color:white;stop-opacity:1"/></linearGradient>
        <linearGradient id="_Linear7" x1="0" y1="0" x2="1" y2="0" gradientUnits="userSpaceOnUse" gradientTransform="matrix(2691.521507,-1350.447268,1350.447268,2691.521507,1602.0808,2219.090232)"><stop offset="0" style="stop-color:rgb(238,247,247);stop-opacity:1"/><stop offset="1" style="stop-color:white;stop-opacity:1"/></linearGradient>
        <linearGradient id="_Linear8" x1="0" y1="0" x2="1" y2="0" gradientUnits="userSpaceOnUse" gradientTransform="matrix(2691.521507,-1350.447268,1350.447268,2691.521507,1962.641685,2347.573837)"><stop offset="0" style="stop-color:rgb(238,247,247);stop-opacity:1"/><stop offset="1" style="stop-color:white;stop-opacity:1"/></linearGradient>
        <linearGradient id="_Linear9" x1="0" y1="0" x2="1" y2="0" gradientUnits="userSpaceOnUse" gradientTransform="matrix(4517.653398,-3876.592878,3876.592878,4517.653398,3173.720739,6515.160915)"><stop offset="0" style="stop-color:rgb(238,247,247);stop-opacity:1"/><stop offset="1" style="stop-color:white;stop-opacity:1"/></linearGradient>
    </defs>
</svg>
