<svg width="780" height="200" viewBox="0 0 780 200" fill="none" xmlns="http://www.w3.org/2000/svg">
<path d="M22.9334 37.2796L23.8545 0H0L22.9334 37.2796Z" fill="#FF3636"/>
<path d="M30.181 1.52588e-05L79.0901 41.3825L52.6678 1.52588e-05H30.181Z" fill="#FF5A36"/>
<path d="M30.181 48.8069L60.948 99.1115L56.8079 64.5021L30.181 48.8069Z" fill="#FF5A36"/>
<path d="M38.4612 48.6673L74.7081 47.0391L59.7665 60.5015L38.4612 48.6673Z" fill="#ABB9D6"/>
<path d="M62.7158 65.9813L66.2697 106.145L103.987 88.6077L62.7158 65.9813Z" fill="#FFB357"/>
<path d="M69.526 111.541L109.764 143.49L118.64 111.243L69.526 111.541Z" fill="#89D1D1"/>
<path d="M75.5547 122.185L118.342 191.394L109.029 149.854L75.5547 122.185Z" fill="#89D1D1"/>
<path d="M113.467 148.97L123.673 200L155.622 147.193L113.467 148.97Z" fill="#98F0F0"/>
<path d="M128.111 109.466L156.701 100.005V135.656L128.111 109.466Z" fill="#50A0C8"/>
<path d="M162.73 96.5996L162.134 136.987L192.743 86.6726L162.73 96.5996Z" fill="#3471E3"/>
<path d="M177.736 60.9481L164.944 90.6824L197.041 79.7321L177.736 60.9481Z" fill="#3471E3"/>
<path d="M180.034 54.2866L200.084 74.6337L220.347 41.3825L180.034 54.2866Z" fill="#3471E3"/>
<path d="M198.837 1.52588e-05L225.948 32.1999L245.569 1.52588e-05H198.837Z" fill="#663399"/>
<path d="M174.964 28.5807V54.2866L136.735 89.5008L174.964 28.5807Z" fill="#50A0C8"/>
<path d="M28.7017 4.73558L27.8085 44.3783L73.5265 42.899L28.7017 4.73558Z" fill="#ABB9D6"/>
<path d="M82.7464 47.1136L103.987 80.3833L67.4606 61.2458L82.7464 47.1136Z" fill="#ABB9D6"/>
<path d="M81.6579 106.145L111.597 92.3013L120.863 106.22L81.6579 106.145Z" fill="#ABB9D6"/>
<path d="M123.394 112.267L158.58 142.011L115.095 143.508L123.394 112.267Z" fill="#ABB9D6"/>
<path d="M127.664 104.591L172.489 62.1296L157.845 94.5249L127.664 104.591Z" fill="#ABB9D6"/>
<path d="M178.853 23.3707L179.513 49.7093L218.644 37.3913L178.853 23.3707Z" fill="#ABB9D6"/>
<path d="M180.797 19.2864L192.901 0L220.273 32.6929L180.797 19.2864Z" fill="#8E6CD6"/>
<path d="M359.57 156L399.794 52.86H423.723L381.229 156H359.57ZM357.919 156L315.219 52.86H338.942L379.372 156H357.919ZM439.605 156V52.86H462.502V156H439.605ZM451.156 33.2634C447.443 33.2634 444.211 31.957 441.461 29.3441C438.848 26.5937 437.542 23.362 437.542 19.6489C437.542 15.9359 438.848 12.7729 441.461 10.16C444.211 7.54716 447.443 6.24072 451.156 6.24072C454.869 6.24072 458.032 7.54716 460.645 10.16C463.396 12.7729 464.771 15.9359 464.771 19.6489C464.771 23.362 463.396 26.5937 460.645 29.3441C458.032 31.957 454.869 33.2634 451.156 33.2634ZM527.274 158.475C520.398 158.475 514.072 157.444 508.296 155.381C502.52 153.318 497.569 150.43 493.444 146.717C489.318 142.867 486.155 138.397 483.955 133.309L503.964 124.439C506.027 128.29 509.052 131.521 513.04 134.134C517.166 136.747 521.704 138.054 526.655 138.054C532.018 138.054 536.281 137.16 539.444 135.372C542.745 133.447 544.395 130.834 544.395 127.533C544.395 124.37 543.157 121.964 540.682 120.314C538.206 118.526 534.7 117.082 530.161 115.982L520.466 113.3C510.702 110.825 503.07 106.905 497.569 101.542C492.068 96.0413 489.318 89.7841 489.318 82.7706C489.318 72.4566 492.619 64.4804 499.219 58.8421C505.958 53.2038 515.584 50.3846 528.099 50.3846C534.425 50.3846 540.2 51.3473 545.426 53.2726C550.789 55.0603 555.396 57.6732 559.247 61.1112C563.098 64.4117 565.779 68.331 567.292 72.8692L548.108 81.5329C546.733 78.0949 544.12 75.482 540.269 73.6943C536.419 71.769 532.156 70.8064 527.48 70.8064C522.804 70.8064 519.16 71.8378 516.547 73.9006C513.934 75.8258 512.628 78.5762 512.628 82.1518C512.628 84.2146 513.797 86.1398 516.134 87.9276C518.472 89.5778 521.842 90.953 526.242 92.0532L538.413 94.9411C545.151 96.5914 550.652 99.2042 554.915 102.78C559.178 106.218 562.341 110.137 564.404 114.538C566.467 118.801 567.498 123.133 567.498 127.533C567.498 133.722 565.71 139.154 562.135 143.829C558.697 148.505 553.952 152.149 547.902 154.762C541.851 157.238 534.975 158.475 527.274 158.475ZM596.959 158.888C592.971 158.888 589.533 157.513 586.645 154.762C583.895 151.874 582.52 148.436 582.52 144.448C582.52 140.46 583.895 137.022 586.645 134.134C589.533 131.246 592.971 129.802 596.959 129.802C600.947 129.802 604.385 131.246 607.273 134.134C610.161 137.022 611.605 140.46 611.605 144.448C611.605 148.436 610.161 151.874 607.273 154.762C604.385 157.513 600.947 158.888 596.959 158.888ZM678.114 199.938C670.826 199.938 664.225 199.319 658.311 198.081C652.535 196.843 647.654 195.399 643.665 193.749C639.677 192.099 636.583 190.518 634.383 189.005L643.253 170.44C645.178 171.402 647.722 172.571 650.885 173.946C654.186 175.459 658.036 176.766 662.437 177.866C666.838 178.966 671.788 179.516 677.289 179.516C683.202 179.516 688.497 178.278 693.173 175.803C697.848 173.465 701.493 169.821 704.105 164.87C706.718 159.919 708.025 153.593 708.025 145.892V52.86H731.128V145.273C731.128 156.963 728.928 166.864 724.527 174.978C720.127 183.229 713.938 189.417 705.962 193.543C697.986 197.806 688.703 199.938 678.114 199.938ZM674.607 153.937C665.256 153.937 657.074 151.806 650.06 147.543C643.184 143.279 637.752 137.366 633.764 129.802C629.913 122.101 627.988 113.231 627.988 103.192C627.988 92.4658 629.913 83.1832 633.764 75.3445C637.752 67.5059 643.184 61.3862 650.06 56.9856C657.074 52.585 665.256 50.3846 674.607 50.3846C682.996 50.3846 690.285 52.585 696.473 56.9856C702.799 61.3862 707.681 67.5746 711.119 75.5508C714.557 83.3894 716.276 92.672 716.276 103.399C716.276 113.575 714.557 122.445 711.119 130.009C707.681 137.572 702.799 143.486 696.473 147.749C690.285 151.874 682.996 153.937 674.607 153.937ZM681.002 134.341C686.228 134.341 690.766 132.965 694.617 130.215C698.605 127.465 701.699 123.752 703.899 119.076C706.1 114.263 707.2 108.762 707.2 102.573C707.2 96.2476 706.1 90.7468 703.899 86.0711C701.699 81.2579 698.605 77.5448 694.617 74.932C690.629 72.1816 686.022 70.8064 680.796 70.8064C675.295 70.8064 670.413 72.1816 666.15 74.932C662.024 77.5448 658.724 81.2579 656.249 86.0711C653.911 90.7468 652.742 96.2476 652.742 102.573C652.742 108.762 653.911 114.263 656.249 119.076C658.724 123.752 662.093 127.465 666.356 130.215C670.619 132.965 675.501 134.341 681.002 134.341ZM756.646 156V11.604H779.749V156H756.646Z" fill="#111827"/>
</svg>
